<!DOCTYPE svg PUBLIC "-//W3C//DTD SVG 20010904//EN"
 "http://www.w3.org/TR/2001/REC-SVG-20010904/DTD/svg10.dtd">
<svg xmlns="http://www.w3.org/2000/svg" width="400" height="400" viewBox="0 0 400 400" version="1">
  <path fill="currentColor" d="M131.3 107.4c-42.9 8.2-74.3 41-79.3 82.8-3 25.2 6 52.4 23.8 71.8 30.6 33.5 81.1 41.7 120.6 19.6 9.1-5.1 20.1-14 23.6-19.1 10.6-15.4.9-35.5-18-37.2-7.7-.7-13.1 1.3-21.3 7.9-3.4 2.8-8.8 6.3-12 7.8-23.7 11.4-52.5 1.1-63.3-22.5-13.8-30.2 8.7-64 42.6-63.9 5.6 0 10.6.6 14.5 1.9 3.3 1 6.5 1.9 7 2 .6 0 .9-2.1.7-5.1-.7-10.7 3.8-19.1 15.2-28.5 4.2-3.4 7.6-6.8 7.6-7.5 0-1.4-12.9-6.7-22.2-9-8.8-2.1-30.5-2.7-39.5-1zm102.5.2c-20.4 3.7-45.3 17.5-53.8 29.9-10.6 15.4-.9 35.5 18 37.2 7.7.7 13.1-1.3 21.3-7.9 3.4-2.8 8.8-6.3 12-7.8 23.7-11.4 52.5-1.1 63.3 22.5 13.8 30.2-8.7 64-42.6 63.9-5.6 0-10.6-.6-14.5-1.9-3.3-1-6.4-1.9-7-2-.6 0-.9 2.1-.7 5.1.7 10.7-3.8 19.1-15.2 28.5-4.2 3.4-7.6 6.8-7.6 7.5 0 1.4 13 6.7 22.2 8.9 9.3 2.3 26 3 35.9 1.6 44.3-6.5 77.7-40.1 82.9-83.4 4.3-36.4-15.7-73.6-49.3-91.7-19.5-10.5-43.3-14.3-64.9-10.4z"/>
</svg>
