<?xml version="1.0" encoding="utf-8"?>
<!-- Generator: Adobe Illustrator 16.0.0, SVG Export Plug-In . SVG Version: 6.00 Build 0)  -->
<!DOCTYPE svg PUBLIC "-//W3C//DTD SVG 1.1//EN" "http://www.w3.org/Graphics/SVG/1.1/DTD/svg11.dtd">
<svg version="1.1" id="Layer_1" xmlns="http://www.w3.org/2000/svg" xmlns:xlink="http://www.w3.org/1999/xlink" x="0px" y="0px"
	 width="512px" height="512px" viewBox="0 0 512 512" enable-background="new 0 0 512 512" xml:space="preserve">
<path d="M96,80c0,8.844-7.156,16-16,16l0,0c-8.844,0-16-7.156-16-16V16c0-8.844,7.156-16,16-16l0,0c8.844,0,16,7.156,16,16V80z
	 M352,16c0-8.844-7.156-16-16-16l0,0c-8.844,0-16,7.156-16,16v64c0,8.844,7.156,16,16,16l0,0c8.844,0,16-7.156,16-16V16z M384,288
	c-52.938,0-96,43.063-96,96s43.063,96,96,96s96-43.063,96-96S436.938,288,384,288 M384,256c70.688,0,128,57.313,128,128
	s-57.313,128-128,128s-128-57.313-128-128S313.313,256,384,256L384,256z M128,192H64v64h64V192z M128,288H64v64h64V288z M224,192
	h-64v64h64V192z M224,288h-64v64h64V288z M224,384H34.672c-1.453,0-2.672-1.5-2.672-3.188V160h352v64h32V99.188
	C416,79.75,400.5,64,381.344,64H368v16c0,17.625-14.344,32-32,32s-32-14.375-32-32V64H112v16c0,17.625-14.344,32-32,32
	S48,97.625,48,80V64H34.672C15.516,64,0,79.75,0,99.188v281.625C0,400.188,15.516,416,34.672,416H224V384z M320,192h-64v64h64V192z
	 M432,368h-32v-32c0-8.844-7.156-16-16-16s-16,7.156-16,16v32h-32c-8.844,0-16,7.156-16,16s7.156,16,16,16h32v32
	c0,8.844,7.156,16,16,16s16-7.156,16-16v-32h32c8.844,0,16-7.156,16-16S440.844,368,432,368z"/>
</svg>
